<mxfile host="65bd71144e">
    <diagram id="0SlvOvUXwTlL37_-eekA" name="eth">
        <mxGraphModel dx="514" dy="502" grid="1" gridSize="10" guides="1" tooltips="1" connect="1" arrows="1" fold="1" page="1" pageScale="1" pageWidth="850" pageHeight="1100" math="0" shadow="0">
            <root>
                <mxCell id="0"/>
                <mxCell id="1" parent="0"/>
                <mxCell id="70" value="" style="rounded=0;whiteSpace=wrap;html=1;fontSize=14;" parent="1" vertex="1">
                    <mxGeometry x="222.5" y="422" width="427" height="384" as="geometry"/>
                </mxCell>
                <mxCell id="69" value="" style="rounded=0;whiteSpace=wrap;html=1;fontSize=14;" parent="1" vertex="1">
                    <mxGeometry x="221" y="14" width="427" height="384" as="geometry"/>
                </mxCell>
                <mxCell id="16" value="" style="edgeStyle=none;html=1;fontSize=14;" parent="1" source="2" target="9" edge="1">
                    <mxGeometry relative="1" as="geometry"/>
                </mxCell>
                <mxCell id="2" value="应用层&lt;br style=&quot;font-size: 14px;&quot;&gt;(http，snmp...）" style="rounded=0;whiteSpace=wrap;html=1;fontSize=14;" parent="1" vertex="1">
                    <mxGeometry x="236" y="99" width="120" height="40" as="geometry"/>
                </mxCell>
                <mxCell id="4" value="客户端/浏览器端" style="text;html=1;strokeColor=none;fillColor=none;align=center;verticalAlign=middle;whiteSpace=wrap;rounded=0;fontSize=14;" parent="1" vertex="1">
                    <mxGeometry x="266" y="59" width="60" height="30" as="geometry"/>
                </mxCell>
                <mxCell id="5" value="服务器端" style="text;html=1;strokeColor=none;fillColor=none;align=center;verticalAlign=middle;whiteSpace=wrap;rounded=0;fontSize=14;" parent="1" vertex="1">
                    <mxGeometry x="541" y="59" width="60" height="30" as="geometry"/>
                </mxCell>
                <mxCell id="7" value="应用层&lt;br style=&quot;font-size: 14px;&quot;&gt;(http，snmp...）" style="rounded=0;whiteSpace=wrap;html=1;fontSize=14;" parent="1" vertex="1">
                    <mxGeometry x="516" y="99" width="120" height="40" as="geometry"/>
                </mxCell>
                <mxCell id="17" value="" style="edgeStyle=none;html=1;fontSize=14;" parent="1" source="9" target="11" edge="1">
                    <mxGeometry relative="1" as="geometry"/>
                </mxCell>
                <mxCell id="9" value="传输层(tcp/udp)" style="rounded=0;whiteSpace=wrap;html=1;fontSize=14;" parent="1" vertex="1">
                    <mxGeometry x="236" y="179" width="120" height="40" as="geometry"/>
                </mxCell>
                <mxCell id="23" value="" style="edgeStyle=none;html=1;fontSize=14;" parent="1" source="10" target="7" edge="1">
                    <mxGeometry relative="1" as="geometry"/>
                </mxCell>
                <mxCell id="10" value="传输层(tcp/udp)" style="rounded=0;whiteSpace=wrap;html=1;fontSize=14;" parent="1" vertex="1">
                    <mxGeometry x="516" y="179" width="120" height="40" as="geometry"/>
                </mxCell>
                <mxCell id="18" value="" style="edgeStyle=none;html=1;fontSize=14;" parent="1" source="11" target="13" edge="1">
                    <mxGeometry relative="1" as="geometry"/>
                </mxCell>
                <mxCell id="24" style="edgeStyle=none;html=1;entryX=0;entryY=0.5;entryDx=0;entryDy=0;fontSize=14;endArrow=none;endFill=0;dashed=1;" parent="1" source="11" target="12" edge="1">
                    <mxGeometry relative="1" as="geometry"/>
                </mxCell>
                <mxCell id="11" value="网络层(IP/ICMP...)" style="rounded=0;whiteSpace=wrap;html=1;fontSize=14;" parent="1" vertex="1">
                    <mxGeometry x="236" y="259" width="120" height="40" as="geometry"/>
                </mxCell>
                <mxCell id="22" value="" style="edgeStyle=none;html=1;fontSize=14;" parent="1" source="12" target="10" edge="1">
                    <mxGeometry relative="1" as="geometry"/>
                </mxCell>
                <mxCell id="12" value="网络层(IP/ICMP...)" style="rounded=0;whiteSpace=wrap;html=1;fontSize=14;" parent="1" vertex="1">
                    <mxGeometry x="516" y="259" width="120" height="40" as="geometry"/>
                </mxCell>
                <mxCell id="19" value="" style="edgeStyle=none;html=1;fontSize=14;" parent="1" source="13" target="15" edge="1">
                    <mxGeometry relative="1" as="geometry"/>
                </mxCell>
                <mxCell id="13" value="物理层(PHY，同轴电缆，光纤)" style="rounded=0;whiteSpace=wrap;html=1;fontSize=14;" parent="1" vertex="1">
                    <mxGeometry x="236" y="339" width="120" height="40" as="geometry"/>
                </mxCell>
                <mxCell id="21" value="" style="edgeStyle=none;html=1;fontSize=14;" parent="1" source="14" target="12" edge="1">
                    <mxGeometry relative="1" as="geometry"/>
                </mxCell>
                <mxCell id="14" value="物理层(PHY，同轴电缆，光纤)" style="rounded=0;whiteSpace=wrap;html=1;fontSize=14;" parent="1" vertex="1">
                    <mxGeometry x="516" y="339" width="120" height="40" as="geometry"/>
                </mxCell>
                <mxCell id="20" value="" style="edgeStyle=none;html=1;fontSize=14;" parent="1" source="15" target="14" edge="1">
                    <mxGeometry relative="1" as="geometry"/>
                </mxCell>
                <mxCell id="15" value="中继路由&lt;br&gt;(可选)" style="rounded=0;whiteSpace=wrap;html=1;fontSize=14;dashed=1;" parent="1" vertex="1">
                    <mxGeometry x="396" y="339" width="80" height="40" as="geometry"/>
                </mxCell>
                <mxCell id="25" value="可达性检测" style="text;html=1;strokeColor=none;fillColor=none;align=center;verticalAlign=middle;whiteSpace=wrap;rounded=0;dashed=1;fontSize=14;" parent="1" vertex="1">
                    <mxGeometry x="396" y="289" width="80" height="30" as="geometry"/>
                </mxCell>
                <mxCell id="27" value="" style="endArrow=none;dashed=1;html=1;fontSize=14;exitX=1;exitY=0.5;exitDx=0;exitDy=0;entryX=0;entryY=0.5;entryDx=0;entryDy=0;" parent="1" source="9" target="10" edge="1">
                    <mxGeometry width="50" height="50" relative="1" as="geometry">
                        <mxPoint x="486" y="199" as="sourcePoint"/>
                        <mxPoint x="536" y="149" as="targetPoint"/>
                    </mxGeometry>
                </mxCell>
                <mxCell id="28" value="设备连接" style="text;html=1;strokeColor=none;fillColor=none;align=center;verticalAlign=middle;whiteSpace=wrap;rounded=0;dashed=1;fontSize=14;" parent="1" vertex="1">
                    <mxGeometry x="396" y="209" width="80" height="30" as="geometry"/>
                </mxCell>
                <mxCell id="29" value="" style="endArrow=none;dashed=1;html=1;fontSize=14;exitX=1;exitY=0.5;exitDx=0;exitDy=0;entryX=0;entryY=0.5;entryDx=0;entryDy=0;" parent="1" edge="1">
                    <mxGeometry width="50" height="50" relative="1" as="geometry">
                        <mxPoint x="356" y="118.41" as="sourcePoint"/>
                        <mxPoint x="516" y="118.41" as="targetPoint"/>
                    </mxGeometry>
                </mxCell>
                <mxCell id="30" value="应用功能" style="text;html=1;strokeColor=none;fillColor=none;align=center;verticalAlign=middle;whiteSpace=wrap;rounded=0;dashed=1;fontSize=14;" parent="1" vertex="1">
                    <mxGeometry x="396" y="129" width="80" height="30" as="geometry"/>
                </mxCell>
                <mxCell id="31" value="网络请求" style="text;html=1;strokeColor=none;fillColor=none;align=center;verticalAlign=middle;whiteSpace=wrap;rounded=0;dashed=1;fontSize=14;" parent="1" vertex="1">
                    <mxGeometry x="236" y="23" width="60" height="30" as="geometry"/>
                </mxCell>
                <mxCell id="33" value="应用层&lt;br style=&quot;font-size: 14px;&quot;&gt;(http，snmp...）" style="rounded=0;whiteSpace=wrap;html=1;fontSize=14;" parent="1" vertex="1">
                    <mxGeometry x="236" y="501" width="120" height="40" as="geometry"/>
                </mxCell>
                <mxCell id="34" value="客户端/浏览器端" style="text;html=1;strokeColor=none;fillColor=none;align=center;verticalAlign=middle;whiteSpace=wrap;rounded=0;fontSize=14;" parent="1" vertex="1">
                    <mxGeometry x="266" y="461" width="60" height="30" as="geometry"/>
                </mxCell>
                <mxCell id="35" value="服务器端" style="text;html=1;strokeColor=none;fillColor=none;align=center;verticalAlign=middle;whiteSpace=wrap;rounded=0;fontSize=14;" parent="1" vertex="1">
                    <mxGeometry x="541" y="461" width="60" height="30" as="geometry"/>
                </mxCell>
                <mxCell id="59" style="edgeStyle=none;html=1;entryX=0.5;entryY=0;entryDx=0;entryDy=0;fontSize=14;endArrow=classic;endFill=1;" parent="1" source="36" target="40" edge="1">
                    <mxGeometry relative="1" as="geometry"/>
                </mxCell>
                <mxCell id="36" value="应用层&lt;br style=&quot;font-size: 14px;&quot;&gt;(http，snmp...）" style="rounded=0;whiteSpace=wrap;html=1;fontSize=14;" parent="1" vertex="1">
                    <mxGeometry x="516" y="501" width="120" height="40" as="geometry"/>
                </mxCell>
                <mxCell id="68" value="" style="edgeStyle=none;html=1;fontSize=14;endArrow=classic;endFill=1;" parent="1" source="38" edge="1">
                    <mxGeometry relative="1" as="geometry">
                        <mxPoint x="296" y="542" as="targetPoint"/>
                    </mxGeometry>
                </mxCell>
                <mxCell id="38" value="传输层(tcp/udp)" style="rounded=0;whiteSpace=wrap;html=1;fontSize=14;" parent="1" vertex="1">
                    <mxGeometry x="236" y="581" width="120" height="40" as="geometry"/>
                </mxCell>
                <mxCell id="60" value="" style="edgeStyle=none;html=1;fontSize=14;endArrow=classic;endFill=1;" parent="1" source="40" target="45" edge="1">
                    <mxGeometry relative="1" as="geometry"/>
                </mxCell>
                <mxCell id="40" value="传输层(tcp/udp)" style="rounded=0;whiteSpace=wrap;html=1;fontSize=14;" parent="1" vertex="1">
                    <mxGeometry x="516" y="581" width="120" height="40" as="geometry"/>
                </mxCell>
                <mxCell id="42" style="edgeStyle=none;html=1;entryX=0;entryY=0.5;entryDx=0;entryDy=0;fontSize=14;endArrow=none;endFill=0;dashed=1;" parent="1" source="43" target="45" edge="1">
                    <mxGeometry relative="1" as="geometry"/>
                </mxCell>
                <mxCell id="67" value="" style="edgeStyle=none;html=1;fontSize=14;endArrow=classic;endFill=1;" parent="1" source="43" target="38" edge="1">
                    <mxGeometry relative="1" as="geometry"/>
                </mxCell>
                <mxCell id="43" value="网络层(IP/ICMP...)" style="rounded=0;whiteSpace=wrap;html=1;fontSize=14;" parent="1" vertex="1">
                    <mxGeometry x="236" y="661" width="120" height="40" as="geometry"/>
                </mxCell>
                <mxCell id="61" value="" style="edgeStyle=none;html=1;fontSize=14;endArrow=classic;endFill=1;" parent="1" source="45" target="49" edge="1">
                    <mxGeometry relative="1" as="geometry"/>
                </mxCell>
                <mxCell id="45" value="网络层(IP/ICMP...)" style="rounded=0;whiteSpace=wrap;html=1;fontSize=14;" parent="1" vertex="1">
                    <mxGeometry x="516" y="661" width="120" height="40" as="geometry"/>
                </mxCell>
                <mxCell id="66" value="" style="edgeStyle=none;html=1;fontSize=14;endArrow=classic;endFill=1;" parent="1" source="47" target="43" edge="1">
                    <mxGeometry relative="1" as="geometry"/>
                </mxCell>
                <mxCell id="47" value="物理层(PHY，同轴电缆，光纤)" style="rounded=0;whiteSpace=wrap;html=1;fontSize=14;" parent="1" vertex="1">
                    <mxGeometry x="236" y="741" width="120" height="40" as="geometry"/>
                </mxCell>
                <mxCell id="64" value="" style="edgeStyle=none;html=1;fontSize=14;endArrow=classic;endFill=1;" parent="1" source="49" target="51" edge="1">
                    <mxGeometry relative="1" as="geometry"/>
                </mxCell>
                <mxCell id="49" value="物理层(PHY，同轴电缆，光纤)" style="rounded=0;whiteSpace=wrap;html=1;fontSize=14;" parent="1" vertex="1">
                    <mxGeometry x="516" y="741" width="120" height="40" as="geometry"/>
                </mxCell>
                <mxCell id="65" value="" style="edgeStyle=none;html=1;fontSize=14;endArrow=classic;endFill=1;" parent="1" source="51" target="47" edge="1">
                    <mxGeometry relative="1" as="geometry"/>
                </mxCell>
                <mxCell id="51" value="中继路由&lt;br&gt;(可选)" style="rounded=0;whiteSpace=wrap;html=1;fontSize=14;dashed=1;" parent="1" vertex="1">
                    <mxGeometry x="396" y="741" width="80" height="40" as="geometry"/>
                </mxCell>
                <mxCell id="52" value="可达性检测" style="text;html=1;strokeColor=none;fillColor=none;align=center;verticalAlign=middle;whiteSpace=wrap;rounded=0;dashed=1;fontSize=14;" parent="1" vertex="1">
                    <mxGeometry x="396" y="691" width="80" height="30" as="geometry"/>
                </mxCell>
                <mxCell id="53" value="" style="endArrow=none;dashed=1;html=1;fontSize=14;exitX=1;exitY=0.5;exitDx=0;exitDy=0;entryX=0;entryY=0.5;entryDx=0;entryDy=0;" parent="1" source="38" target="40" edge="1">
                    <mxGeometry width="50" height="50" relative="1" as="geometry">
                        <mxPoint x="486" y="601" as="sourcePoint"/>
                        <mxPoint x="536" y="551" as="targetPoint"/>
                    </mxGeometry>
                </mxCell>
                <mxCell id="54" value="设备连接" style="text;html=1;strokeColor=none;fillColor=none;align=center;verticalAlign=middle;whiteSpace=wrap;rounded=0;dashed=1;fontSize=14;" parent="1" vertex="1">
                    <mxGeometry x="396" y="611" width="80" height="30" as="geometry"/>
                </mxCell>
                <mxCell id="55" value="" style="endArrow=none;dashed=1;html=1;fontSize=14;exitX=1;exitY=0.5;exitDx=0;exitDy=0;entryX=0;entryY=0.5;entryDx=0;entryDy=0;" parent="1" edge="1">
                    <mxGeometry width="50" height="50" relative="1" as="geometry">
                        <mxPoint x="356" y="520.41" as="sourcePoint"/>
                        <mxPoint x="516" y="520.41" as="targetPoint"/>
                    </mxGeometry>
                </mxCell>
                <mxCell id="56" value="应用功能" style="text;html=1;strokeColor=none;fillColor=none;align=center;verticalAlign=middle;whiteSpace=wrap;rounded=0;dashed=1;fontSize=14;" parent="1" vertex="1">
                    <mxGeometry x="396" y="531" width="80" height="30" as="geometry"/>
                </mxCell>
                <mxCell id="57" value="网络应答" style="text;html=1;strokeColor=none;fillColor=none;align=center;verticalAlign=middle;whiteSpace=wrap;rounded=0;dashed=1;fontSize=14;" parent="1" vertex="1">
                    <mxGeometry x="234" y="422" width="60" height="30" as="geometry"/>
                </mxCell>
            </root>
        </mxGraphModel>
    </diagram>
    <diagram id="klIyzxc62k52cpXkBVNB" name="can">
        <mxGraphModel dx="959" dy="792" grid="1" gridSize="10" guides="1" tooltips="1" connect="1" arrows="1" fold="1" page="1" pageScale="1" pageWidth="850" pageHeight="1100" math="0" shadow="0">
            <root>
                <mxCell id="0"/>
                <mxCell id="1" parent="0"/>
                <mxCell id="zVb4LhKWTQDya5SxU7NS-54" value="" style="rounded=0;whiteSpace=wrap;html=1;dashed=1;" parent="1" vertex="1">
                    <mxGeometry x="110" y="1610" width="340" height="240" as="geometry"/>
                </mxCell>
                <mxCell id="W2VACCaXeC31Bb4m4Pa8-81" value="" style="rounded=0;whiteSpace=wrap;html=1;dashed=1;" parent="1" vertex="1">
                    <mxGeometry x="120" y="1200" width="390" height="140" as="geometry"/>
                </mxCell>
                <mxCell id="d5QxdZMNTx7dFxy-mhnb-75" value="" style="rounded=0;whiteSpace=wrap;html=1;dashed=1;" parent="1" vertex="1">
                    <mxGeometry x="115" y="610" width="465" height="260" as="geometry"/>
                </mxCell>
                <mxCell id="xVRCVHzSB1M7O8loG68O-33" value="" style="rounded=0;whiteSpace=wrap;html=1;dashed=1;" parent="1" vertex="1">
                    <mxGeometry x="120" y="390" width="470" height="150" as="geometry"/>
                </mxCell>
                <mxCell id="On_w9MF_DnX2zHmG0NmM-34" value="" style="rounded=0;whiteSpace=wrap;html=1;dashed=1;" parent="1" vertex="1">
                    <mxGeometry x="140" y="90" width="410" height="240" as="geometry"/>
                </mxCell>
                <mxCell id="On_w9MF_DnX2zHmG0NmM-6" value="" style="rounded=0;whiteSpace=wrap;html=1;" parent="1" vertex="1">
                    <mxGeometry x="150" y="160" width="140" height="120" as="geometry"/>
                </mxCell>
                <mxCell id="On_w9MF_DnX2zHmG0NmM-5" style="edgeStyle=none;html=1;exitX=0;exitY=0.75;exitDx=0;exitDy=0;entryX=1;entryY=0.75;entryDx=0;entryDy=0;" parent="1" source="On_w9MF_DnX2zHmG0NmM-1" target="On_w9MF_DnX2zHmG0NmM-2" edge="1">
                    <mxGeometry relative="1" as="geometry"/>
                </mxCell>
                <mxCell id="On_w9MF_DnX2zHmG0NmM-1" value="CAN&lt;div&gt;收发器&lt;/div&gt;" style="rounded=0;whiteSpace=wrap;html=1;" parent="1" vertex="1">
                    <mxGeometry x="240" y="190" width="40" height="80" as="geometry"/>
                </mxCell>
                <mxCell id="On_w9MF_DnX2zHmG0NmM-2" value="CAN&lt;div&gt;控制器&lt;/div&gt;" style="rounded=0;whiteSpace=wrap;html=1;" parent="1" vertex="1">
                    <mxGeometry x="160" y="190" width="40" height="80" as="geometry"/>
                </mxCell>
                <mxCell id="On_w9MF_DnX2zHmG0NmM-3" value="" style="endArrow=classic;html=1;exitX=1;exitY=0.25;exitDx=0;exitDy=0;entryX=0;entryY=0.25;entryDx=0;entryDy=0;" parent="1" source="On_w9MF_DnX2zHmG0NmM-2" target="On_w9MF_DnX2zHmG0NmM-1" edge="1">
                    <mxGeometry width="50" height="50" relative="1" as="geometry">
                        <mxPoint x="390" y="250" as="sourcePoint"/>
                        <mxPoint x="440" y="200" as="targetPoint"/>
                    </mxGeometry>
                </mxCell>
                <mxCell id="On_w9MF_DnX2zHmG0NmM-7" value="CanNode" style="text;html=1;align=center;verticalAlign=middle;whiteSpace=wrap;rounded=0;" parent="1" vertex="1">
                    <mxGeometry x="150" y="160" width="60" height="30" as="geometry"/>
                </mxCell>
                <mxCell id="On_w9MF_DnX2zHmG0NmM-8" value="canTx" style="text;html=1;align=center;verticalAlign=middle;whiteSpace=wrap;rounded=0;" parent="1" vertex="1">
                    <mxGeometry x="190" y="190" width="60" height="30" as="geometry"/>
                </mxCell>
                <mxCell id="On_w9MF_DnX2zHmG0NmM-9" value="canRx" style="text;html=1;align=center;verticalAlign=middle;whiteSpace=wrap;rounded=0;" parent="1" vertex="1">
                    <mxGeometry x="190" y="230" width="60" height="30" as="geometry"/>
                </mxCell>
                <mxCell id="On_w9MF_DnX2zHmG0NmM-19" value="" style="rounded=0;whiteSpace=wrap;html=1;" parent="1" vertex="1">
                    <mxGeometry x="390" y="160" width="140" height="120" as="geometry"/>
                </mxCell>
                <mxCell id="On_w9MF_DnX2zHmG0NmM-20" style="edgeStyle=none;html=1;exitX=0;exitY=0.75;exitDx=0;exitDy=0;entryX=1;entryY=0.75;entryDx=0;entryDy=0;" parent="1" source="On_w9MF_DnX2zHmG0NmM-21" target="On_w9MF_DnX2zHmG0NmM-22" edge="1">
                    <mxGeometry relative="1" as="geometry"/>
                </mxCell>
                <mxCell id="On_w9MF_DnX2zHmG0NmM-21" value="CAN&lt;div&gt;控制器&lt;/div&gt;" style="rounded=0;whiteSpace=wrap;html=1;" parent="1" vertex="1">
                    <mxGeometry x="480" y="190" width="40" height="80" as="geometry"/>
                </mxCell>
                <mxCell id="On_w9MF_DnX2zHmG0NmM-22" value="CAN&lt;div&gt;收发器&lt;/div&gt;" style="rounded=0;whiteSpace=wrap;html=1;" parent="1" vertex="1">
                    <mxGeometry x="400" y="190" width="40" height="80" as="geometry"/>
                </mxCell>
                <mxCell id="On_w9MF_DnX2zHmG0NmM-23" value="" style="endArrow=classic;html=1;exitX=1;exitY=0.25;exitDx=0;exitDy=0;entryX=0;entryY=0.25;entryDx=0;entryDy=0;" parent="1" source="On_w9MF_DnX2zHmG0NmM-22" target="On_w9MF_DnX2zHmG0NmM-21" edge="1">
                    <mxGeometry width="50" height="50" relative="1" as="geometry">
                        <mxPoint x="630" y="250" as="sourcePoint"/>
                        <mxPoint x="680" y="200" as="targetPoint"/>
                    </mxGeometry>
                </mxCell>
                <mxCell id="On_w9MF_DnX2zHmG0NmM-24" value="CanNode" style="text;html=1;align=center;verticalAlign=middle;whiteSpace=wrap;rounded=0;" parent="1" vertex="1">
                    <mxGeometry x="390" y="160" width="60" height="30" as="geometry"/>
                </mxCell>
                <mxCell id="On_w9MF_DnX2zHmG0NmM-25" value="canRx" style="text;html=1;align=center;verticalAlign=middle;whiteSpace=wrap;rounded=0;" parent="1" vertex="1">
                    <mxGeometry x="430" y="190" width="60" height="30" as="geometry"/>
                </mxCell>
                <mxCell id="On_w9MF_DnX2zHmG0NmM-26" value="canTx" style="text;html=1;align=center;verticalAlign=middle;whiteSpace=wrap;rounded=0;" parent="1" vertex="1">
                    <mxGeometry x="430" y="230" width="60" height="30" as="geometry"/>
                </mxCell>
                <mxCell id="On_w9MF_DnX2zHmG0NmM-29" value="" style="shape=flexArrow;endArrow=classic;startArrow=classic;html=1;width=5.833333333333334;endSize=2.6083333333333334;endWidth=12.63888888888889;startWidth=12.63888888888889;startSize=2.6083333333333334;" parent="1" edge="1">
                    <mxGeometry width="100" height="100" relative="1" as="geometry">
                        <mxPoint x="340" y="310" as="sourcePoint"/>
                        <mxPoint x="340" y="110" as="targetPoint"/>
                    </mxGeometry>
                </mxCell>
                <mxCell id="On_w9MF_DnX2zHmG0NmM-30" value="差分&lt;div&gt;CAN总线&lt;/div&gt;" style="text;html=1;align=center;verticalAlign=middle;whiteSpace=wrap;rounded=0;" parent="1" vertex="1">
                    <mxGeometry x="350" y="120" width="60" height="30" as="geometry"/>
                </mxCell>
                <mxCell id="On_w9MF_DnX2zHmG0NmM-31" value="" style="endArrow=classic;startArrow=classic;html=1;exitX=1;exitY=0.5;exitDx=0;exitDy=0;" parent="1" source="On_w9MF_DnX2zHmG0NmM-1" edge="1">
                    <mxGeometry width="50" height="50" relative="1" as="geometry">
                        <mxPoint x="420" y="210" as="sourcePoint"/>
                        <mxPoint x="340" y="180" as="targetPoint"/>
                    </mxGeometry>
                </mxCell>
                <mxCell id="On_w9MF_DnX2zHmG0NmM-33" value="" style="endArrow=classic;startArrow=classic;html=1;entryX=0;entryY=0.5;entryDx=0;entryDy=0;" parent="1" target="On_w9MF_DnX2zHmG0NmM-22" edge="1">
                    <mxGeometry width="50" height="50" relative="1" as="geometry">
                        <mxPoint x="340" y="180" as="sourcePoint"/>
                        <mxPoint x="380" y="180" as="targetPoint"/>
                    </mxGeometry>
                </mxCell>
                <mxCell id="On_w9MF_DnX2zHmG0NmM-35" value="CAN节点连接结构" style="text;html=1;align=center;verticalAlign=middle;whiteSpace=wrap;rounded=0;" parent="1" vertex="1">
                    <mxGeometry x="150" y="100" width="60" height="30" as="geometry"/>
                </mxCell>
                <mxCell id="xVRCVHzSB1M7O8loG68O-1" value="" style="endArrow=none;html=1;" parent="1" edge="1">
                    <mxGeometry width="50" height="50" relative="1" as="geometry">
                        <mxPoint x="210" y="450" as="sourcePoint"/>
                        <mxPoint x="130" y="450" as="targetPoint"/>
                    </mxGeometry>
                </mxCell>
                <mxCell id="xVRCVHzSB1M7O8loG68O-2" value="" style="endArrow=none;html=1;" parent="1" edge="1">
                    <mxGeometry width="50" height="50" relative="1" as="geometry">
                        <mxPoint x="210" y="420" as="sourcePoint"/>
                        <mxPoint x="210" y="490" as="targetPoint"/>
                    </mxGeometry>
                </mxCell>
                <mxCell id="xVRCVHzSB1M7O8loG68O-3" value="" style="endArrow=none;html=1;" parent="1" edge="1">
                    <mxGeometry width="50" height="50" relative="1" as="geometry">
                        <mxPoint x="210" y="490" as="sourcePoint"/>
                        <mxPoint x="230" y="490" as="targetPoint"/>
                    </mxGeometry>
                </mxCell>
                <mxCell id="xVRCVHzSB1M7O8loG68O-6" value="" style="rounded=0;whiteSpace=wrap;html=1;" parent="1" vertex="1">
                    <mxGeometry x="230" y="450" width="60" height="40" as="geometry"/>
                </mxCell>
                <mxCell id="xVRCVHzSB1M7O8loG68O-7" value="" style="rounded=0;whiteSpace=wrap;html=1;" parent="1" vertex="1">
                    <mxGeometry x="290" y="450" width="60" height="40" as="geometry"/>
                </mxCell>
                <mxCell id="xVRCVHzSB1M7O8loG68O-8" value="" style="rounded=0;whiteSpace=wrap;html=1;" parent="1" vertex="1">
                    <mxGeometry x="350" y="450" width="60" height="40" as="geometry"/>
                </mxCell>
                <mxCell id="xVRCVHzSB1M7O8loG68O-9" value="" style="rounded=0;whiteSpace=wrap;html=1;" parent="1" vertex="1">
                    <mxGeometry x="410" y="450" width="60" height="40" as="geometry"/>
                </mxCell>
                <mxCell id="xVRCVHzSB1M7O8loG68O-10" value="" style="endArrow=none;html=1;" parent="1" edge="1">
                    <mxGeometry width="50" height="50" relative="1" as="geometry">
                        <mxPoint x="470" y="490" as="sourcePoint"/>
                        <mxPoint x="490" y="490" as="targetPoint"/>
                    </mxGeometry>
                </mxCell>
                <mxCell id="xVRCVHzSB1M7O8loG68O-11" value="" style="endArrow=none;html=1;" parent="1" edge="1">
                    <mxGeometry width="50" height="50" relative="1" as="geometry">
                        <mxPoint x="490" y="450" as="sourcePoint"/>
                        <mxPoint x="490" y="490" as="targetPoint"/>
                    </mxGeometry>
                </mxCell>
                <mxCell id="xVRCVHzSB1M7O8loG68O-12" value="" style="endArrow=none;html=1;" parent="1" edge="1">
                    <mxGeometry width="50" height="50" relative="1" as="geometry">
                        <mxPoint x="490" y="450" as="sourcePoint"/>
                        <mxPoint x="570" y="450" as="targetPoint"/>
                    </mxGeometry>
                </mxCell>
                <mxCell id="xVRCVHzSB1M7O8loG68O-13" value="帧间空间" style="text;html=1;align=center;verticalAlign=middle;whiteSpace=wrap;rounded=0;" parent="1" vertex="1">
                    <mxGeometry x="140" y="420" width="60" height="20" as="geometry"/>
                </mxCell>
                <mxCell id="xVRCVHzSB1M7O8loG68O-15" value="" style="endArrow=classic;html=1;exitX=0.579;exitY=-0.093;exitDx=0;exitDy=0;exitPerimeter=0;" parent="1" source="xVRCVHzSB1M7O8loG68O-16" edge="1">
                    <mxGeometry width="50" height="50" relative="1" as="geometry">
                        <mxPoint x="210" y="510" as="sourcePoint"/>
                        <mxPoint x="210" y="490" as="targetPoint"/>
                    </mxGeometry>
                </mxCell>
                <mxCell id="xVRCVHzSB1M7O8loG68O-16" value="帧起始" style="text;html=1;align=center;verticalAlign=middle;whiteSpace=wrap;rounded=0;" parent="1" vertex="1">
                    <mxGeometry x="170" y="520" width="70" height="20" as="geometry"/>
                </mxCell>
                <mxCell id="xVRCVHzSB1M7O8loG68O-17" value="" style="endArrow=none;html=1;entryX=0;entryY=1;entryDx=0;entryDy=0;" parent="1" target="xVRCVHzSB1M7O8loG68O-6" edge="1">
                    <mxGeometry width="50" height="50" relative="1" as="geometry">
                        <mxPoint x="230" y="520" as="sourcePoint"/>
                        <mxPoint x="300" y="480" as="targetPoint"/>
                        <Array as="points">
                            <mxPoint x="230" y="500"/>
                        </Array>
                    </mxGeometry>
                </mxCell>
                <mxCell id="xVRCVHzSB1M7O8loG68O-18" value="" style="endArrow=none;html=1;entryX=0;entryY=1;entryDx=0;entryDy=0;" parent="1" edge="1">
                    <mxGeometry width="50" height="50" relative="1" as="geometry">
                        <mxPoint x="290" y="520" as="sourcePoint"/>
                        <mxPoint x="290" y="490" as="targetPoint"/>
                        <Array as="points">
                            <mxPoint x="290" y="500"/>
                        </Array>
                    </mxGeometry>
                </mxCell>
                <mxCell id="xVRCVHzSB1M7O8loG68O-19" value="仲裁场" style="text;html=1;align=center;verticalAlign=middle;whiteSpace=wrap;rounded=0;" parent="1" vertex="1">
                    <mxGeometry x="235" y="500" width="50" height="20" as="geometry"/>
                </mxCell>
                <mxCell id="xVRCVHzSB1M7O8loG68O-20" value="控制场" style="text;html=1;align=center;verticalAlign=middle;whiteSpace=wrap;rounded=0;" parent="1" vertex="1">
                    <mxGeometry x="297.5" y="500" width="45" height="20" as="geometry"/>
                </mxCell>
                <mxCell id="xVRCVHzSB1M7O8loG68O-21" value="" style="endArrow=none;html=1;entryX=0;entryY=1;entryDx=0;entryDy=0;" parent="1" edge="1">
                    <mxGeometry width="50" height="50" relative="1" as="geometry">
                        <mxPoint x="349.52" y="520" as="sourcePoint"/>
                        <mxPoint x="349.52" y="490" as="targetPoint"/>
                        <Array as="points">
                            <mxPoint x="349.52" y="500"/>
                        </Array>
                    </mxGeometry>
                </mxCell>
                <mxCell id="xVRCVHzSB1M7O8loG68O-22" value="数据场" style="text;html=1;align=center;verticalAlign=middle;whiteSpace=wrap;rounded=0;" parent="1" vertex="1">
                    <mxGeometry x="355" y="500" width="45" height="20" as="geometry"/>
                </mxCell>
                <mxCell id="xVRCVHzSB1M7O8loG68O-23" value="" style="endArrow=none;html=1;entryX=0;entryY=1;entryDx=0;entryDy=0;" parent="1" edge="1">
                    <mxGeometry width="50" height="50" relative="1" as="geometry">
                        <mxPoint x="410" y="520" as="sourcePoint"/>
                        <mxPoint x="410" y="490" as="targetPoint"/>
                        <Array as="points">
                            <mxPoint x="410" y="500"/>
                        </Array>
                    </mxGeometry>
                </mxCell>
                <mxCell id="xVRCVHzSB1M7O8loG68O-24" value="ACK场" style="text;html=1;align=center;verticalAlign=middle;whiteSpace=wrap;rounded=0;" parent="1" vertex="1">
                    <mxGeometry x="470" y="520" width="40" height="20" as="geometry"/>
                </mxCell>
                <mxCell id="xVRCVHzSB1M7O8loG68O-25" value="" style="endArrow=none;html=1;entryX=0;entryY=1;entryDx=0;entryDy=0;" parent="1" edge="1">
                    <mxGeometry width="50" height="50" relative="1" as="geometry">
                        <mxPoint x="470" y="520" as="sourcePoint"/>
                        <mxPoint x="469.52" y="490" as="targetPoint"/>
                        <Array as="points">
                            <mxPoint x="469.52" y="500"/>
                        </Array>
                    </mxGeometry>
                </mxCell>
                <mxCell id="xVRCVHzSB1M7O8loG68O-26" value="" style="endArrow=classic;html=1;exitX=0.579;exitY=-0.093;exitDx=0;exitDy=0;exitPerimeter=0;" parent="1" edge="1">
                    <mxGeometry width="50" height="50" relative="1" as="geometry">
                        <mxPoint x="491" y="518" as="sourcePoint"/>
                        <mxPoint x="490" y="490" as="targetPoint"/>
                    </mxGeometry>
                </mxCell>
                <mxCell id="xVRCVHzSB1M7O8loG68O-27" value="" style="endArrow=none;html=1;" parent="1" edge="1">
                    <mxGeometry width="50" height="50" relative="1" as="geometry">
                        <mxPoint x="510" y="520" as="sourcePoint"/>
                        <mxPoint x="510" y="420" as="targetPoint"/>
                        <Array as="points">
                            <mxPoint x="509.71" y="460"/>
                        </Array>
                    </mxGeometry>
                </mxCell>
                <mxCell id="xVRCVHzSB1M7O8loG68O-28" value="CRC场" style="text;html=1;align=center;verticalAlign=middle;whiteSpace=wrap;rounded=0;" parent="1" vertex="1">
                    <mxGeometry x="417.5" y="500" width="45" height="20" as="geometry"/>
                </mxCell>
                <mxCell id="xVRCVHzSB1M7O8loG68O-29" value="数据帧" style="text;html=1;align=center;verticalAlign=middle;whiteSpace=wrap;rounded=0;" parent="1" vertex="1">
                    <mxGeometry x="340" y="420" width="45" height="20" as="geometry"/>
                </mxCell>
                <mxCell id="xVRCVHzSB1M7O8loG68O-30" value="" style="endArrow=classic;html=1;" parent="1" edge="1">
                    <mxGeometry width="50" height="50" relative="1" as="geometry">
                        <mxPoint x="330" y="430" as="sourcePoint"/>
                        <mxPoint x="210" y="430" as="targetPoint"/>
                    </mxGeometry>
                </mxCell>
                <mxCell id="xVRCVHzSB1M7O8loG68O-31" value="" style="endArrow=classic;html=1;" parent="1" edge="1">
                    <mxGeometry width="50" height="50" relative="1" as="geometry">
                        <mxPoint x="390" y="430" as="sourcePoint"/>
                        <mxPoint x="510" y="430" as="targetPoint"/>
                    </mxGeometry>
                </mxCell>
                <mxCell id="xVRCVHzSB1M7O8loG68O-32" value="帧间空间" style="text;html=1;align=center;verticalAlign=middle;whiteSpace=wrap;rounded=0;" parent="1" vertex="1">
                    <mxGeometry x="520" y="420" width="60" height="20" as="geometry"/>
                </mxCell>
                <mxCell id="xVRCVHzSB1M7O8loG68O-34" value="can数据帧格式" style="text;html=1;align=center;verticalAlign=middle;whiteSpace=wrap;rounded=0;" parent="1" vertex="1">
                    <mxGeometry x="120" y="390" width="90" height="30" as="geometry"/>
                </mxCell>
                <mxCell id="d5QxdZMNTx7dFxy-mhnb-1" value="" style="endArrow=none;html=1;" parent="1" edge="1">
                    <mxGeometry width="50" height="50" relative="1" as="geometry">
                        <mxPoint x="120" y="690" as="sourcePoint"/>
                        <mxPoint x="160" y="690" as="targetPoint"/>
                    </mxGeometry>
                </mxCell>
                <mxCell id="d5QxdZMNTx7dFxy-mhnb-2" value="" style="endArrow=none;html=1;" parent="1" edge="1">
                    <mxGeometry width="50" height="50" relative="1" as="geometry">
                        <mxPoint x="160" y="730" as="sourcePoint"/>
                        <mxPoint x="160" y="690" as="targetPoint"/>
                    </mxGeometry>
                </mxCell>
                <mxCell id="d5QxdZMNTx7dFxy-mhnb-3" value="" style="endArrow=none;html=1;" parent="1" edge="1">
                    <mxGeometry width="50" height="50" relative="1" as="geometry">
                        <mxPoint x="160" y="730" as="sourcePoint"/>
                        <mxPoint x="180" y="730" as="targetPoint"/>
                    </mxGeometry>
                </mxCell>
                <mxCell id="d5QxdZMNTx7dFxy-mhnb-4" value="SOF" style="text;html=1;align=center;verticalAlign=middle;whiteSpace=wrap;rounded=0;rotation=270;" parent="1" vertex="1">
                    <mxGeometry x="152.5" y="700" width="35" height="17.5" as="geometry"/>
                </mxCell>
                <mxCell id="d5QxdZMNTx7dFxy-mhnb-8" value="" style="endArrow=none;html=1;" parent="1" edge="1">
                    <mxGeometry width="50" height="50" relative="1" as="geometry">
                        <mxPoint x="180" y="730" as="sourcePoint"/>
                        <mxPoint x="180" y="690" as="targetPoint"/>
                    </mxGeometry>
                </mxCell>
                <mxCell id="d5QxdZMNTx7dFxy-mhnb-9" value="11位标识符" style="rounded=0;whiteSpace=wrap;html=1;" parent="1" vertex="1">
                    <mxGeometry x="180" y="690" width="70" height="40" as="geometry"/>
                </mxCell>
                <mxCell id="d5QxdZMNTx7dFxy-mhnb-10" value="" style="rounded=0;whiteSpace=wrap;html=1;" parent="1" vertex="1">
                    <mxGeometry x="250" y="690" width="20" height="40" as="geometry"/>
                </mxCell>
                <mxCell id="d5QxdZMNTx7dFxy-mhnb-11" value="RTR" style="text;html=1;align=center;verticalAlign=middle;whiteSpace=wrap;rounded=0;rotation=270;" parent="1" vertex="1">
                    <mxGeometry x="242.5" y="701.25" width="35" height="17.5" as="geometry"/>
                </mxCell>
                <mxCell id="d5QxdZMNTx7dFxy-mhnb-13" value="IDE" style="text;html=1;align=center;verticalAlign=middle;whiteSpace=wrap;rounded=0;rotation=270;" parent="1" vertex="1">
                    <mxGeometry x="262.5" y="700" width="35" height="17.5" as="geometry"/>
                </mxCell>
                <mxCell id="d5QxdZMNTx7dFxy-mhnb-14" value="" style="endArrow=none;html=1;exitX=1;exitY=1;exitDx=0;exitDy=0;" parent="1" source="d5QxdZMNTx7dFxy-mhnb-10" edge="1">
                    <mxGeometry width="50" height="50" relative="1" as="geometry">
                        <mxPoint x="220" y="700" as="sourcePoint"/>
                        <mxPoint x="310" y="730" as="targetPoint"/>
                    </mxGeometry>
                </mxCell>
                <mxCell id="d5QxdZMNTx7dFxy-mhnb-15" value="" style="endArrow=none;html=1;" parent="1" edge="1">
                    <mxGeometry width="50" height="50" relative="1" as="geometry">
                        <mxPoint x="290" y="730" as="sourcePoint"/>
                        <mxPoint x="290" y="690" as="targetPoint"/>
                    </mxGeometry>
                </mxCell>
                <mxCell id="d5QxdZMNTx7dFxy-mhnb-16" value="r0" style="text;html=1;align=center;verticalAlign=middle;whiteSpace=wrap;rounded=0;rotation=270;" parent="1" vertex="1">
                    <mxGeometry x="280" y="700" width="35" height="17.5" as="geometry"/>
                </mxCell>
                <mxCell id="d5QxdZMNTx7dFxy-mhnb-17" value="" style="endArrow=none;html=1;" parent="1" edge="1">
                    <mxGeometry width="50" height="50" relative="1" as="geometry">
                        <mxPoint x="310" y="730" as="sourcePoint"/>
                        <mxPoint x="310" y="690" as="targetPoint"/>
                    </mxGeometry>
                </mxCell>
                <mxCell id="d5QxdZMNTx7dFxy-mhnb-20" value="DLC" style="rounded=0;whiteSpace=wrap;html=1;" parent="1" vertex="1">
                    <mxGeometry x="310" y="690" width="50" height="40" as="geometry"/>
                </mxCell>
                <mxCell id="d5QxdZMNTx7dFxy-mhnb-24" value="" style="endArrow=none;html=1;exitX=1;exitY=0;exitDx=0;exitDy=0;" parent="1" source="d5QxdZMNTx7dFxy-mhnb-20" edge="1">
                    <mxGeometry width="50" height="50" relative="1" as="geometry">
                        <mxPoint x="370" y="710" as="sourcePoint"/>
                        <mxPoint x="430" y="690" as="targetPoint"/>
                    </mxGeometry>
                </mxCell>
                <mxCell id="d5QxdZMNTx7dFxy-mhnb-25" value="" style="endArrow=none;html=1;exitX=1;exitY=0;exitDx=0;exitDy=0;" parent="1" edge="1">
                    <mxGeometry width="50" height="50" relative="1" as="geometry">
                        <mxPoint x="360" y="730" as="sourcePoint"/>
                        <mxPoint x="430" y="730" as="targetPoint"/>
                    </mxGeometry>
                </mxCell>
                <mxCell id="d5QxdZMNTx7dFxy-mhnb-26" value="" style="endArrow=none;html=1;exitX=0;exitY=0;exitDx=0;exitDy=0;" parent="1" source="d5QxdZMNTx7dFxy-mhnb-9" edge="1">
                    <mxGeometry width="50" height="50" relative="1" as="geometry">
                        <mxPoint x="220" y="710" as="sourcePoint"/>
                        <mxPoint x="180" y="670" as="targetPoint"/>
                    </mxGeometry>
                </mxCell>
                <mxCell id="d5QxdZMNTx7dFxy-mhnb-27" value="" style="endArrow=none;html=1;exitX=0;exitY=0;exitDx=0;exitDy=0;" parent="1" edge="1">
                    <mxGeometry width="50" height="50" relative="1" as="geometry">
                        <mxPoint x="270" y="690" as="sourcePoint"/>
                        <mxPoint x="270" y="670" as="targetPoint"/>
                    </mxGeometry>
                </mxCell>
                <mxCell id="d5QxdZMNTx7dFxy-mhnb-29" value="" style="endArrow=classic;html=1;" parent="1" edge="1">
                    <mxGeometry width="50" height="50" relative="1" as="geometry">
                        <mxPoint x="200" y="680" as="sourcePoint"/>
                        <mxPoint x="180" y="680" as="targetPoint"/>
                    </mxGeometry>
                </mxCell>
                <mxCell id="d5QxdZMNTx7dFxy-mhnb-30" value="" style="endArrow=classic;html=1;" parent="1" edge="1">
                    <mxGeometry width="50" height="50" relative="1" as="geometry">
                        <mxPoint x="250" y="680" as="sourcePoint"/>
                        <mxPoint x="270" y="680" as="targetPoint"/>
                    </mxGeometry>
                </mxCell>
                <mxCell id="d5QxdZMNTx7dFxy-mhnb-31" value="仲裁场" style="text;html=1;align=center;verticalAlign=middle;whiteSpace=wrap;rounded=0;" parent="1" vertex="1">
                    <mxGeometry x="200" y="670" width="50" height="20" as="geometry"/>
                </mxCell>
                <mxCell id="d5QxdZMNTx7dFxy-mhnb-32" value="" style="endArrow=none;html=1;" parent="1" edge="1">
                    <mxGeometry width="50" height="50" relative="1" as="geometry">
                        <mxPoint x="360" y="690" as="sourcePoint"/>
                        <mxPoint x="360" y="670" as="targetPoint"/>
                    </mxGeometry>
                </mxCell>
                <mxCell id="d5QxdZMNTx7dFxy-mhnb-34" style="edgeStyle=none;html=1;" parent="1" source="d5QxdZMNTx7dFxy-mhnb-33" edge="1">
                    <mxGeometry relative="1" as="geometry">
                        <mxPoint x="360" y="680" as="targetPoint"/>
                    </mxGeometry>
                </mxCell>
                <mxCell id="d5QxdZMNTx7dFxy-mhnb-35" style="edgeStyle=none;html=1;exitX=0;exitY=0.5;exitDx=0;exitDy=0;" parent="1" source="d5QxdZMNTx7dFxy-mhnb-33" edge="1">
                    <mxGeometry relative="1" as="geometry">
                        <mxPoint x="270" y="680.1016949152541" as="targetPoint"/>
                    </mxGeometry>
                </mxCell>
                <mxCell id="d5QxdZMNTx7dFxy-mhnb-33" value="控制场" style="text;html=1;align=center;verticalAlign=middle;whiteSpace=wrap;rounded=0;" parent="1" vertex="1">
                    <mxGeometry x="290" y="670" width="50" height="20" as="geometry"/>
                </mxCell>
                <mxCell id="d5QxdZMNTx7dFxy-mhnb-37" style="edgeStyle=none;html=1;" parent="1" source="d5QxdZMNTx7dFxy-mhnb-36" edge="1">
                    <mxGeometry relative="1" as="geometry">
                        <mxPoint x="360" y="680" as="targetPoint"/>
                    </mxGeometry>
                </mxCell>
                <mxCell id="d5QxdZMNTx7dFxy-mhnb-36" value="数据场" style="text;html=1;align=center;verticalAlign=middle;whiteSpace=wrap;rounded=0;" parent="1" vertex="1">
                    <mxGeometry x="380" y="670" width="45" height="20" as="geometry"/>
                </mxCell>
                <mxCell id="d5QxdZMNTx7dFxy-mhnb-38" value="标准帧" style="text;html=1;align=center;verticalAlign=middle;whiteSpace=wrap;rounded=0;" parent="1" vertex="1">
                    <mxGeometry x="115" y="640" width="60" height="30" as="geometry"/>
                </mxCell>
                <mxCell id="d5QxdZMNTx7dFxy-mhnb-39" value="扩展帧" style="text;html=1;align=center;verticalAlign=middle;whiteSpace=wrap;rounded=0;" parent="1" vertex="1">
                    <mxGeometry x="110" y="750" width="60" height="30" as="geometry"/>
                </mxCell>
                <mxCell id="d5QxdZMNTx7dFxy-mhnb-40" value="" style="endArrow=none;html=1;" parent="1" edge="1">
                    <mxGeometry width="50" height="50" relative="1" as="geometry">
                        <mxPoint x="120" y="800" as="sourcePoint"/>
                        <mxPoint x="160" y="800" as="targetPoint"/>
                    </mxGeometry>
                </mxCell>
                <mxCell id="d5QxdZMNTx7dFxy-mhnb-41" value="" style="endArrow=none;html=1;" parent="1" edge="1">
                    <mxGeometry width="50" height="50" relative="1" as="geometry">
                        <mxPoint x="160" y="840" as="sourcePoint"/>
                        <mxPoint x="160" y="800" as="targetPoint"/>
                    </mxGeometry>
                </mxCell>
                <mxCell id="d5QxdZMNTx7dFxy-mhnb-42" value="" style="endArrow=none;html=1;" parent="1" edge="1">
                    <mxGeometry width="50" height="50" relative="1" as="geometry">
                        <mxPoint x="160" y="840" as="sourcePoint"/>
                        <mxPoint x="180" y="840" as="targetPoint"/>
                    </mxGeometry>
                </mxCell>
                <mxCell id="d5QxdZMNTx7dFxy-mhnb-43" value="SOF" style="text;html=1;align=center;verticalAlign=middle;whiteSpace=wrap;rounded=0;rotation=270;" parent="1" vertex="1">
                    <mxGeometry x="152.5" y="810" width="35" height="17.5" as="geometry"/>
                </mxCell>
                <mxCell id="d5QxdZMNTx7dFxy-mhnb-44" value="" style="endArrow=none;html=1;" parent="1" edge="1">
                    <mxGeometry width="50" height="50" relative="1" as="geometry">
                        <mxPoint x="180" y="840" as="sourcePoint"/>
                        <mxPoint x="180" y="800" as="targetPoint"/>
                    </mxGeometry>
                </mxCell>
                <mxCell id="d5QxdZMNTx7dFxy-mhnb-45" value="11位标识符" style="rounded=0;whiteSpace=wrap;html=1;" parent="1" vertex="1">
                    <mxGeometry x="180" y="800" width="70" height="40" as="geometry"/>
                </mxCell>
                <mxCell id="d5QxdZMNTx7dFxy-mhnb-47" value="SRR" style="text;html=1;align=center;verticalAlign=middle;whiteSpace=wrap;rounded=0;rotation=270;" parent="1" vertex="1">
                    <mxGeometry x="242.5" y="811.25" width="35" height="17.5" as="geometry"/>
                </mxCell>
                <mxCell id="d5QxdZMNTx7dFxy-mhnb-48" value="r1" style="text;html=1;align=center;verticalAlign=middle;whiteSpace=wrap;rounded=0;rotation=270;" parent="1" vertex="1">
                    <mxGeometry x="371.25" y="812.5" width="35" height="12.5" as="geometry"/>
                </mxCell>
                <mxCell id="d5QxdZMNTx7dFxy-mhnb-49" value="" style="endArrow=none;html=1;exitX=1;exitY=1;exitDx=0;exitDy=0;" parent="1" source="d5QxdZMNTx7dFxy-mhnb-73" edge="1">
                    <mxGeometry width="50" height="50" relative="1" as="geometry">
                        <mxPoint x="383.75" y="840" as="sourcePoint"/>
                        <mxPoint x="423.75" y="840" as="targetPoint"/>
                    </mxGeometry>
                </mxCell>
                <mxCell id="d5QxdZMNTx7dFxy-mhnb-50" value="" style="endArrow=none;html=1;" parent="1" edge="1">
                    <mxGeometry width="50" height="50" relative="1" as="geometry">
                        <mxPoint x="400" y="840" as="sourcePoint"/>
                        <mxPoint x="400" y="800" as="targetPoint"/>
                    </mxGeometry>
                </mxCell>
                <mxCell id="d5QxdZMNTx7dFxy-mhnb-51" value="r0" style="text;html=1;align=center;verticalAlign=middle;whiteSpace=wrap;rounded=0;rotation=270;" parent="1" vertex="1">
                    <mxGeometry x="395" y="813.13" width="35" height="14.37" as="geometry"/>
                </mxCell>
                <mxCell id="d5QxdZMNTx7dFxy-mhnb-52" value="" style="endArrow=none;html=1;" parent="1" edge="1">
                    <mxGeometry width="50" height="50" relative="1" as="geometry">
                        <mxPoint x="423.75" y="840" as="sourcePoint"/>
                        <mxPoint x="423.75" y="800" as="targetPoint"/>
                    </mxGeometry>
                </mxCell>
                <mxCell id="d5QxdZMNTx7dFxy-mhnb-53" value="DLC" style="rounded=0;whiteSpace=wrap;html=1;" parent="1" vertex="1">
                    <mxGeometry x="423.75" y="800" width="50" height="40" as="geometry"/>
                </mxCell>
                <mxCell id="d5QxdZMNTx7dFxy-mhnb-54" value="" style="endArrow=none;html=1;exitX=1;exitY=0;exitDx=0;exitDy=0;" parent="1" source="d5QxdZMNTx7dFxy-mhnb-53" edge="1">
                    <mxGeometry width="50" height="50" relative="1" as="geometry">
                        <mxPoint x="483.75" y="820" as="sourcePoint"/>
                        <mxPoint x="543.75" y="800" as="targetPoint"/>
                    </mxGeometry>
                </mxCell>
                <mxCell id="d5QxdZMNTx7dFxy-mhnb-55" value="" style="endArrow=none;html=1;exitX=1;exitY=0;exitDx=0;exitDy=0;" parent="1" edge="1">
                    <mxGeometry width="50" height="50" relative="1" as="geometry">
                        <mxPoint x="473.75" y="840" as="sourcePoint"/>
                        <mxPoint x="543.75" y="840" as="targetPoint"/>
                    </mxGeometry>
                </mxCell>
                <mxCell id="d5QxdZMNTx7dFxy-mhnb-56" value="" style="endArrow=none;html=1;exitX=0;exitY=0;exitDx=0;exitDy=0;" parent="1" source="d5QxdZMNTx7dFxy-mhnb-45" edge="1">
                    <mxGeometry width="50" height="50" relative="1" as="geometry">
                        <mxPoint x="220" y="820" as="sourcePoint"/>
                        <mxPoint x="180" y="780" as="targetPoint"/>
                    </mxGeometry>
                </mxCell>
                <mxCell id="d5QxdZMNTx7dFxy-mhnb-57" value="" style="endArrow=none;html=1;exitX=0;exitY=0;exitDx=0;exitDy=0;" parent="1" edge="1">
                    <mxGeometry width="50" height="50" relative="1" as="geometry">
                        <mxPoint x="379.72" y="800" as="sourcePoint"/>
                        <mxPoint x="379.72" y="780" as="targetPoint"/>
                    </mxGeometry>
                </mxCell>
                <mxCell id="d5QxdZMNTx7dFxy-mhnb-58" value="" style="endArrow=classic;html=1;" parent="1" edge="1">
                    <mxGeometry width="50" height="50" relative="1" as="geometry">
                        <mxPoint x="260" y="790" as="sourcePoint"/>
                        <mxPoint x="180" y="790" as="targetPoint"/>
                    </mxGeometry>
                </mxCell>
                <mxCell id="d5QxdZMNTx7dFxy-mhnb-59" value="" style="endArrow=classic;html=1;exitX=1;exitY=0.5;exitDx=0;exitDy=0;" parent="1" source="d5QxdZMNTx7dFxy-mhnb-60" edge="1">
                    <mxGeometry width="50" height="50" relative="1" as="geometry">
                        <mxPoint x="315" y="789.88" as="sourcePoint"/>
                        <mxPoint x="380" y="790" as="targetPoint"/>
                    </mxGeometry>
                </mxCell>
                <mxCell id="d5QxdZMNTx7dFxy-mhnb-60" value="仲裁场" style="text;html=1;align=center;verticalAlign=middle;whiteSpace=wrap;rounded=0;" parent="1" vertex="1">
                    <mxGeometry x="260" y="780" width="50" height="20" as="geometry"/>
                </mxCell>
                <mxCell id="d5QxdZMNTx7dFxy-mhnb-61" value="" style="endArrow=none;html=1;" parent="1" edge="1">
                    <mxGeometry width="50" height="50" relative="1" as="geometry">
                        <mxPoint x="473.75" y="800" as="sourcePoint"/>
                        <mxPoint x="473.75" y="780" as="targetPoint"/>
                    </mxGeometry>
                </mxCell>
                <mxCell id="d5QxdZMNTx7dFxy-mhnb-62" style="edgeStyle=none;html=1;" parent="1" source="d5QxdZMNTx7dFxy-mhnb-64" edge="1">
                    <mxGeometry relative="1" as="geometry">
                        <mxPoint x="473.75" y="790" as="targetPoint"/>
                    </mxGeometry>
                </mxCell>
                <mxCell id="d5QxdZMNTx7dFxy-mhnb-63" style="edgeStyle=none;html=1;" parent="1" edge="1">
                    <mxGeometry relative="1" as="geometry">
                        <mxPoint x="380" y="790" as="targetPoint"/>
                        <mxPoint x="400" y="790" as="sourcePoint"/>
                    </mxGeometry>
                </mxCell>
                <mxCell id="d5QxdZMNTx7dFxy-mhnb-64" value="控制场" style="text;html=1;align=center;verticalAlign=middle;whiteSpace=wrap;rounded=0;" parent="1" vertex="1">
                    <mxGeometry x="400" y="780" width="50" height="20" as="geometry"/>
                </mxCell>
                <mxCell id="d5QxdZMNTx7dFxy-mhnb-65" style="edgeStyle=none;html=1;" parent="1" source="d5QxdZMNTx7dFxy-mhnb-66" edge="1">
                    <mxGeometry relative="1" as="geometry">
                        <mxPoint x="473.75" y="790" as="targetPoint"/>
                    </mxGeometry>
                </mxCell>
                <mxCell id="d5QxdZMNTx7dFxy-mhnb-66" value="数据场" style="text;html=1;align=center;verticalAlign=middle;whiteSpace=wrap;rounded=0;" parent="1" vertex="1">
                    <mxGeometry x="493.75" y="780" width="45" height="20" as="geometry"/>
                </mxCell>
                <mxCell id="d5QxdZMNTx7dFxy-mhnb-67" value="" style="endArrow=none;html=1;exitX=1;exitY=1;exitDx=0;exitDy=0;" parent="1" edge="1">
                    <mxGeometry width="50" height="50" relative="1" as="geometry">
                        <mxPoint x="245" y="800" as="sourcePoint"/>
                        <mxPoint x="290" y="800" as="targetPoint"/>
                    </mxGeometry>
                </mxCell>
                <mxCell id="d5QxdZMNTx7dFxy-mhnb-68" value="" style="endArrow=none;html=1;" parent="1" edge="1">
                    <mxGeometry width="50" height="50" relative="1" as="geometry">
                        <mxPoint x="269" y="800" as="sourcePoint"/>
                        <mxPoint x="269" y="840" as="targetPoint"/>
                    </mxGeometry>
                </mxCell>
                <mxCell id="d5QxdZMNTx7dFxy-mhnb-69" value="IDE" style="text;html=1;align=center;verticalAlign=middle;whiteSpace=wrap;rounded=0;rotation=270;" parent="1" vertex="1">
                    <mxGeometry x="266.25" y="810" width="27.5" height="17.5" as="geometry"/>
                </mxCell>
                <mxCell id="d5QxdZMNTx7dFxy-mhnb-70" value="" style="endArrow=none;html=1;" parent="1" edge="1">
                    <mxGeometry width="50" height="50" relative="1" as="geometry">
                        <mxPoint x="290" y="800" as="sourcePoint"/>
                        <mxPoint x="290" y="840" as="targetPoint"/>
                    </mxGeometry>
                </mxCell>
                <mxCell id="d5QxdZMNTx7dFxy-mhnb-71" value="18位标识符" style="rounded=0;whiteSpace=wrap;html=1;" parent="1" vertex="1">
                    <mxGeometry x="290" y="800" width="70" height="40" as="geometry"/>
                </mxCell>
                <mxCell id="d5QxdZMNTx7dFxy-mhnb-73" value="" style="rounded=0;whiteSpace=wrap;html=1;" parent="1" vertex="1">
                    <mxGeometry x="360" y="800" width="20" height="40" as="geometry"/>
                </mxCell>
                <mxCell id="d5QxdZMNTx7dFxy-mhnb-74" value="RTR" style="text;html=1;align=center;verticalAlign=middle;whiteSpace=wrap;rounded=0;rotation=270;" parent="1" vertex="1">
                    <mxGeometry x="352.5" y="811.25" width="35" height="17.5" as="geometry"/>
                </mxCell>
                <mxCell id="d5QxdZMNTx7dFxy-mhnb-76" value="can帧内部格式" style="text;html=1;align=center;verticalAlign=middle;whiteSpace=wrap;rounded=0;" parent="1" vertex="1">
                    <mxGeometry x="120" y="610" width="90" height="30" as="geometry"/>
                </mxCell>
                <mxCell id="W2VACCaXeC31Bb4m4Pa8-35" value="" style="endArrow=none;html=1;" parent="1" edge="1">
                    <mxGeometry width="50" height="50" relative="1" as="geometry">
                        <mxPoint x="162.5" y="1260" as="sourcePoint"/>
                        <mxPoint x="130" y="1260" as="targetPoint"/>
                    </mxGeometry>
                </mxCell>
                <mxCell id="W2VACCaXeC31Bb4m4Pa8-36" value="" style="endArrow=none;html=1;" parent="1" edge="1">
                    <mxGeometry width="50" height="50" relative="1" as="geometry">
                        <mxPoint x="162.5" y="1230" as="sourcePoint"/>
                        <mxPoint x="162.5" y="1330" as="targetPoint"/>
                    </mxGeometry>
                </mxCell>
                <mxCell id="W2VACCaXeC31Bb4m4Pa8-37" value="" style="endArrow=none;html=1;" parent="1" edge="1">
                    <mxGeometry width="50" height="50" relative="1" as="geometry">
                        <mxPoint x="162.5" y="1300" as="sourcePoint"/>
                        <mxPoint x="352.5" y="1300" as="targetPoint"/>
                    </mxGeometry>
                </mxCell>
                <mxCell id="W2VACCaXeC31Bb4m4Pa8-43" value="" style="endArrow=none;html=1;" parent="1" edge="1">
                    <mxGeometry width="50" height="50" relative="1" as="geometry">
                        <mxPoint x="352.5" y="1260" as="sourcePoint"/>
                        <mxPoint x="352.5" y="1330" as="targetPoint"/>
                    </mxGeometry>
                </mxCell>
                <mxCell id="W2VACCaXeC31Bb4m4Pa8-44" value="" style="endArrow=none;html=1;" parent="1" edge="1">
                    <mxGeometry width="50" height="50" relative="1" as="geometry">
                        <mxPoint x="352.5" y="1260" as="sourcePoint"/>
                        <mxPoint x="500" y="1260" as="targetPoint"/>
                    </mxGeometry>
                </mxCell>
                <mxCell id="W2VACCaXeC31Bb4m4Pa8-58" value="" style="endArrow=none;html=1;" parent="1" edge="1">
                    <mxGeometry width="50" height="50" relative="1" as="geometry">
                        <mxPoint x="472.79" y="1330" as="sourcePoint"/>
                        <mxPoint x="472.79" y="1230" as="targetPoint"/>
                        <Array as="points">
                            <mxPoint x="472.50000000000006" y="1270"/>
                        </Array>
                    </mxGeometry>
                </mxCell>
                <mxCell id="W2VACCaXeC31Bb4m4Pa8-61" value="" style="endArrow=classic;html=1;exitX=0.049;exitY=0.506;exitDx=0;exitDy=0;exitPerimeter=0;" parent="1" source="W2VACCaXeC31Bb4m4Pa8-70" edge="1">
                    <mxGeometry width="50" height="50" relative="1" as="geometry">
                        <mxPoint x="287.5" y="1240" as="sourcePoint"/>
                        <mxPoint x="162.5" y="1240" as="targetPoint"/>
                    </mxGeometry>
                </mxCell>
                <mxCell id="W2VACCaXeC31Bb4m4Pa8-62" value="" style="endArrow=classic;html=1;exitX=1;exitY=0.5;exitDx=0;exitDy=0;" parent="1" source="W2VACCaXeC31Bb4m4Pa8-70" edge="1">
                    <mxGeometry width="50" height="50" relative="1" as="geometry">
                        <mxPoint x="347.5" y="1240" as="sourcePoint"/>
                        <mxPoint x="472.5" y="1240" as="targetPoint"/>
                    </mxGeometry>
                </mxCell>
                <mxCell id="W2VACCaXeC31Bb4m4Pa8-64" value="can错误帧格式" style="text;html=1;align=center;verticalAlign=middle;whiteSpace=wrap;rounded=0;" parent="1" vertex="1">
                    <mxGeometry x="125" y="1200" width="90" height="30" as="geometry"/>
                </mxCell>
                <mxCell id="W2VACCaXeC31Bb4m4Pa8-65" value="" style="endArrow=none;html=1;" parent="1" edge="1">
                    <mxGeometry width="50" height="50" relative="1" as="geometry">
                        <mxPoint x="272.5" y="1270" as="sourcePoint"/>
                        <mxPoint x="273" y="1300" as="targetPoint"/>
                    </mxGeometry>
                </mxCell>
                <mxCell id="W2VACCaXeC31Bb4m4Pa8-68" style="edgeStyle=none;html=1;" parent="1" source="W2VACCaXeC31Bb4m4Pa8-67" edge="1">
                    <mxGeometry relative="1" as="geometry">
                        <mxPoint x="272.5" y="1280" as="targetPoint"/>
                    </mxGeometry>
                </mxCell>
                <mxCell id="W2VACCaXeC31Bb4m4Pa8-69" style="edgeStyle=none;html=1;" parent="1" source="W2VACCaXeC31Bb4m4Pa8-67" edge="1">
                    <mxGeometry relative="1" as="geometry">
                        <mxPoint x="162.5" y="1280" as="targetPoint"/>
                    </mxGeometry>
                </mxCell>
                <mxCell id="W2VACCaXeC31Bb4m4Pa8-67" value="错误标志" style="text;html=1;align=center;verticalAlign=middle;whiteSpace=wrap;rounded=0;" parent="1" vertex="1">
                    <mxGeometry x="192.5" y="1270" width="50" height="20" as="geometry"/>
                </mxCell>
                <mxCell id="W2VACCaXeC31Bb4m4Pa8-70" value="错误帧" style="text;html=1;align=center;verticalAlign=middle;whiteSpace=wrap;rounded=0;" parent="1" vertex="1">
                    <mxGeometry x="290" y="1230" width="50" height="20" as="geometry"/>
                </mxCell>
                <mxCell id="W2VACCaXeC31Bb4m4Pa8-74" style="edgeStyle=none;html=1;" parent="1" source="W2VACCaXeC31Bb4m4Pa8-73" edge="1">
                    <mxGeometry relative="1" as="geometry">
                        <mxPoint x="352.5" y="1320" as="targetPoint"/>
                    </mxGeometry>
                </mxCell>
                <mxCell id="W2VACCaXeC31Bb4m4Pa8-75" style="edgeStyle=none;html=1;" parent="1" source="W2VACCaXeC31Bb4m4Pa8-73" edge="1">
                    <mxGeometry relative="1" as="geometry">
                        <mxPoint x="162.5" y="1320" as="targetPoint"/>
                    </mxGeometry>
                </mxCell>
                <mxCell id="W2VACCaXeC31Bb4m4Pa8-73" value="错误叠加标志" style="text;html=1;align=center;verticalAlign=middle;whiteSpace=wrap;rounded=0;" parent="1" vertex="1">
                    <mxGeometry x="212.5" y="1310" width="80" height="20" as="geometry"/>
                </mxCell>
                <mxCell id="W2VACCaXeC31Bb4m4Pa8-77" style="edgeStyle=none;html=1;" parent="1" source="W2VACCaXeC31Bb4m4Pa8-76" edge="1">
                    <mxGeometry relative="1" as="geometry">
                        <mxPoint x="352.5" y="1320" as="targetPoint"/>
                    </mxGeometry>
                </mxCell>
                <mxCell id="W2VACCaXeC31Bb4m4Pa8-78" style="edgeStyle=none;html=1;" parent="1" source="W2VACCaXeC31Bb4m4Pa8-76" edge="1">
                    <mxGeometry relative="1" as="geometry">
                        <mxPoint x="472.5" y="1320" as="targetPoint"/>
                    </mxGeometry>
                </mxCell>
                <mxCell id="W2VACCaXeC31Bb4m4Pa8-76" value="错误界定符" style="text;html=1;align=center;verticalAlign=middle;whiteSpace=wrap;rounded=0;" parent="1" vertex="1">
                    <mxGeometry x="380" y="1310" width="70" height="20" as="geometry"/>
                </mxCell>
                <mxCell id="W2VACCaXeC31Bb4m4Pa8-79" value="" style="endArrow=none;html=1;" parent="1" edge="1">
                    <mxGeometry width="50" height="50" relative="1" as="geometry">
                        <mxPoint x="472.5" y="1300" as="sourcePoint"/>
                        <mxPoint x="500" y="1300" as="targetPoint"/>
                    </mxGeometry>
                </mxCell>
                <mxCell id="q4aGYwMEGzMeyhOT9zfh-25" value="" style="rounded=0;whiteSpace=wrap;html=1;dashed=1;" parent="1" vertex="1">
                    <mxGeometry x="120" y="1410" width="390" height="140" as="geometry"/>
                </mxCell>
                <mxCell id="q4aGYwMEGzMeyhOT9zfh-26" value="" style="endArrow=none;html=1;" parent="1" edge="1">
                    <mxGeometry width="50" height="50" relative="1" as="geometry">
                        <mxPoint x="162.5" y="1470" as="sourcePoint"/>
                        <mxPoint x="130" y="1470" as="targetPoint"/>
                    </mxGeometry>
                </mxCell>
                <mxCell id="q4aGYwMEGzMeyhOT9zfh-27" value="" style="endArrow=none;html=1;" parent="1" edge="1">
                    <mxGeometry width="50" height="50" relative="1" as="geometry">
                        <mxPoint x="162.5" y="1440" as="sourcePoint"/>
                        <mxPoint x="162.5" y="1540" as="targetPoint"/>
                    </mxGeometry>
                </mxCell>
                <mxCell id="q4aGYwMEGzMeyhOT9zfh-28" value="" style="endArrow=none;html=1;" parent="1" edge="1">
                    <mxGeometry width="50" height="50" relative="1" as="geometry">
                        <mxPoint x="162.5" y="1510" as="sourcePoint"/>
                        <mxPoint x="352.5" y="1510" as="targetPoint"/>
                    </mxGeometry>
                </mxCell>
                <mxCell id="q4aGYwMEGzMeyhOT9zfh-29" value="" style="endArrow=none;html=1;" parent="1" edge="1">
                    <mxGeometry width="50" height="50" relative="1" as="geometry">
                        <mxPoint x="352.5" y="1470" as="sourcePoint"/>
                        <mxPoint x="352.5" y="1540" as="targetPoint"/>
                    </mxGeometry>
                </mxCell>
                <mxCell id="q4aGYwMEGzMeyhOT9zfh-30" value="" style="endArrow=none;html=1;" parent="1" edge="1">
                    <mxGeometry width="50" height="50" relative="1" as="geometry">
                        <mxPoint x="352.5" y="1470" as="sourcePoint"/>
                        <mxPoint x="500" y="1470" as="targetPoint"/>
                    </mxGeometry>
                </mxCell>
                <mxCell id="q4aGYwMEGzMeyhOT9zfh-32" value="" style="endArrow=none;html=1;" parent="1" edge="1">
                    <mxGeometry width="50" height="50" relative="1" as="geometry">
                        <mxPoint x="472.79" y="1540" as="sourcePoint"/>
                        <mxPoint x="472.79" y="1440" as="targetPoint"/>
                        <Array as="points">
                            <mxPoint x="472.50000000000006" y="1480"/>
                        </Array>
                    </mxGeometry>
                </mxCell>
                <mxCell id="q4aGYwMEGzMeyhOT9zfh-33" value="" style="endArrow=classic;html=1;exitX=0.049;exitY=0.506;exitDx=0;exitDy=0;exitPerimeter=0;" parent="1" source="q4aGYwMEGzMeyhOT9zfh-41" edge="1">
                    <mxGeometry width="50" height="50" relative="1" as="geometry">
                        <mxPoint x="287.5" y="1450" as="sourcePoint"/>
                        <mxPoint x="162.5" y="1450" as="targetPoint"/>
                    </mxGeometry>
                </mxCell>
                <mxCell id="q4aGYwMEGzMeyhOT9zfh-34" value="" style="endArrow=classic;html=1;exitX=1;exitY=0.5;exitDx=0;exitDy=0;" parent="1" source="q4aGYwMEGzMeyhOT9zfh-41" edge="1">
                    <mxGeometry width="50" height="50" relative="1" as="geometry">
                        <mxPoint x="347.5" y="1450" as="sourcePoint"/>
                        <mxPoint x="472.5" y="1450" as="targetPoint"/>
                    </mxGeometry>
                </mxCell>
                <mxCell id="q4aGYwMEGzMeyhOT9zfh-36" value="can过载帧格式" style="text;html=1;align=center;verticalAlign=middle;whiteSpace=wrap;rounded=0;" parent="1" vertex="1">
                    <mxGeometry x="125" y="1410" width="90" height="30" as="geometry"/>
                </mxCell>
                <mxCell id="q4aGYwMEGzMeyhOT9zfh-37" value="" style="endArrow=none;html=1;" parent="1" edge="1">
                    <mxGeometry width="50" height="50" relative="1" as="geometry">
                        <mxPoint x="272.5" y="1480" as="sourcePoint"/>
                        <mxPoint x="273" y="1510" as="targetPoint"/>
                    </mxGeometry>
                </mxCell>
                <mxCell id="q4aGYwMEGzMeyhOT9zfh-38" style="edgeStyle=none;html=1;" parent="1" source="q4aGYwMEGzMeyhOT9zfh-40" edge="1">
                    <mxGeometry relative="1" as="geometry">
                        <mxPoint x="272.5" y="1490" as="targetPoint"/>
                    </mxGeometry>
                </mxCell>
                <mxCell id="q4aGYwMEGzMeyhOT9zfh-39" style="edgeStyle=none;html=1;" parent="1" source="q4aGYwMEGzMeyhOT9zfh-40" edge="1">
                    <mxGeometry relative="1" as="geometry">
                        <mxPoint x="162.5" y="1490" as="targetPoint"/>
                    </mxGeometry>
                </mxCell>
                <mxCell id="q4aGYwMEGzMeyhOT9zfh-40" value="超载标志" style="text;html=1;align=center;verticalAlign=middle;whiteSpace=wrap;rounded=0;" parent="1" vertex="1">
                    <mxGeometry x="192.5" y="1480" width="50" height="20" as="geometry"/>
                </mxCell>
                <mxCell id="q4aGYwMEGzMeyhOT9zfh-41" value="超载帧" style="text;html=1;align=center;verticalAlign=middle;whiteSpace=wrap;rounded=0;" parent="1" vertex="1">
                    <mxGeometry x="290" y="1440" width="50" height="20" as="geometry"/>
                </mxCell>
                <mxCell id="q4aGYwMEGzMeyhOT9zfh-42" style="edgeStyle=none;html=1;" parent="1" source="q4aGYwMEGzMeyhOT9zfh-44" edge="1">
                    <mxGeometry relative="1" as="geometry">
                        <mxPoint x="352.5" y="1530" as="targetPoint"/>
                    </mxGeometry>
                </mxCell>
                <mxCell id="q4aGYwMEGzMeyhOT9zfh-43" style="edgeStyle=none;html=1;" parent="1" source="q4aGYwMEGzMeyhOT9zfh-44" edge="1">
                    <mxGeometry relative="1" as="geometry">
                        <mxPoint x="162.5" y="1530" as="targetPoint"/>
                    </mxGeometry>
                </mxCell>
                <mxCell id="q4aGYwMEGzMeyhOT9zfh-44" value="超载标志叠加" style="text;html=1;align=center;verticalAlign=middle;whiteSpace=wrap;rounded=0;" parent="1" vertex="1">
                    <mxGeometry x="212.5" y="1520" width="80" height="20" as="geometry"/>
                </mxCell>
                <mxCell id="q4aGYwMEGzMeyhOT9zfh-45" style="edgeStyle=none;html=1;" parent="1" source="q4aGYwMEGzMeyhOT9zfh-47" edge="1">
                    <mxGeometry relative="1" as="geometry">
                        <mxPoint x="352.5" y="1530" as="targetPoint"/>
                    </mxGeometry>
                </mxCell>
                <mxCell id="q4aGYwMEGzMeyhOT9zfh-46" style="edgeStyle=none;html=1;" parent="1" source="q4aGYwMEGzMeyhOT9zfh-47" edge="1">
                    <mxGeometry relative="1" as="geometry">
                        <mxPoint x="472.5" y="1530" as="targetPoint"/>
                    </mxGeometry>
                </mxCell>
                <mxCell id="q4aGYwMEGzMeyhOT9zfh-47" value="超载界定符" style="text;html=1;align=center;verticalAlign=middle;whiteSpace=wrap;rounded=0;" parent="1" vertex="1">
                    <mxGeometry x="380" y="1520" width="70" height="20" as="geometry"/>
                </mxCell>
                <mxCell id="q4aGYwMEGzMeyhOT9zfh-48" value="" style="endArrow=none;html=1;" parent="1" edge="1">
                    <mxGeometry width="50" height="50" relative="1" as="geometry">
                        <mxPoint x="472.5" y="1510" as="sourcePoint"/>
                        <mxPoint x="500" y="1510" as="targetPoint"/>
                    </mxGeometry>
                </mxCell>
                <mxCell id="zVb4LhKWTQDya5SxU7NS-23" value="" style="endArrow=none;html=1;" parent="1" edge="1">
                    <mxGeometry width="50" height="50" relative="1" as="geometry">
                        <mxPoint x="121" y="1680" as="sourcePoint"/>
                        <mxPoint x="360" y="1680" as="targetPoint"/>
                    </mxGeometry>
                </mxCell>
                <mxCell id="zVb4LhKWTQDya5SxU7NS-24" value="帧" style="text;html=1;align=center;verticalAlign=middle;whiteSpace=wrap;rounded=0;" parent="1" vertex="1">
                    <mxGeometry x="130" y="1650" width="20" height="20" as="geometry"/>
                </mxCell>
                <mxCell id="zVb4LhKWTQDya5SxU7NS-25" value="" style="endArrow=none;html=1;" parent="1" edge="1">
                    <mxGeometry width="50" height="50" relative="1" as="geometry">
                        <mxPoint x="160" y="1680" as="sourcePoint"/>
                        <mxPoint x="160" y="1640" as="targetPoint"/>
                    </mxGeometry>
                </mxCell>
                <mxCell id="zVb4LhKWTQDya5SxU7NS-33" style="edgeStyle=none;html=1;" parent="1" source="zVb4LhKWTQDya5SxU7NS-32" edge="1">
                    <mxGeometry relative="1" as="geometry">
                        <mxPoint x="160" y="1660" as="targetPoint"/>
                    </mxGeometry>
                </mxCell>
                <mxCell id="zVb4LhKWTQDya5SxU7NS-34" style="edgeStyle=none;html=1;" parent="1" source="zVb4LhKWTQDya5SxU7NS-32" edge="1">
                    <mxGeometry relative="1" as="geometry">
                        <mxPoint x="310" y="1660" as="targetPoint"/>
                    </mxGeometry>
                </mxCell>
                <mxCell id="zVb4LhKWTQDya5SxU7NS-32" value="帧间空间" style="text;html=1;align=center;verticalAlign=middle;whiteSpace=wrap;rounded=0;" parent="1" vertex="1">
                    <mxGeometry x="210" y="1650" width="50" height="20" as="geometry"/>
                </mxCell>
                <mxCell id="zVb4LhKWTQDya5SxU7NS-35" value="" style="endArrow=none;html=1;exitX=1;exitY=0;exitDx=0;exitDy=0;" parent="1" source="zVb4LhKWTQDya5SxU7NS-37" edge="1">
                    <mxGeometry width="50" height="50" relative="1" as="geometry">
                        <mxPoint x="370" y="1720" as="sourcePoint"/>
                        <mxPoint x="320" y="1640" as="targetPoint"/>
                    </mxGeometry>
                </mxCell>
                <mxCell id="zVb4LhKWTQDya5SxU7NS-36" value="间歇场" style="rounded=0;whiteSpace=wrap;html=1;" parent="1" vertex="1">
                    <mxGeometry x="160" y="1680" width="80" height="40" as="geometry"/>
                </mxCell>
                <mxCell id="zVb4LhKWTQDya5SxU7NS-37" value="总线空闲" style="rounded=0;whiteSpace=wrap;html=1;" parent="1" vertex="1">
                    <mxGeometry x="240" y="1680" width="80" height="40" as="geometry"/>
                </mxCell>
                <mxCell id="zVb4LhKWTQDya5SxU7NS-38" value="帧" style="text;html=1;align=center;verticalAlign=middle;whiteSpace=wrap;rounded=0;" parent="1" vertex="1">
                    <mxGeometry x="322.5" y="1650" width="20" height="20" as="geometry"/>
                </mxCell>
                <mxCell id="zVb4LhKWTQDya5SxU7NS-40" value="" style="endArrow=none;html=1;" parent="1" edge="1">
                    <mxGeometry width="50" height="50" relative="1" as="geometry">
                        <mxPoint x="120" y="1720" as="sourcePoint"/>
                        <mxPoint x="360" y="1720" as="targetPoint"/>
                    </mxGeometry>
                </mxCell>
                <mxCell id="zVb4LhKWTQDya5SxU7NS-41" value="" style="endArrow=none;html=1;" parent="1" edge="1">
                    <mxGeometry width="50" height="50" relative="1" as="geometry">
                        <mxPoint x="121" y="1800" as="sourcePoint"/>
                        <mxPoint x="440" y="1800" as="targetPoint"/>
                    </mxGeometry>
                </mxCell>
                <mxCell id="zVb4LhKWTQDya5SxU7NS-42" value="帧" style="text;html=1;align=center;verticalAlign=middle;whiteSpace=wrap;rounded=0;" parent="1" vertex="1">
                    <mxGeometry x="130" y="1770" width="20" height="20" as="geometry"/>
                </mxCell>
                <mxCell id="zVb4LhKWTQDya5SxU7NS-43" value="" style="endArrow=none;html=1;" parent="1" edge="1">
                    <mxGeometry width="50" height="50" relative="1" as="geometry">
                        <mxPoint x="160" y="1800" as="sourcePoint"/>
                        <mxPoint x="160" y="1760" as="targetPoint"/>
                    </mxGeometry>
                </mxCell>
                <mxCell id="zVb4LhKWTQDya5SxU7NS-44" style="edgeStyle=none;html=1;" parent="1" source="zVb4LhKWTQDya5SxU7NS-46" edge="1">
                    <mxGeometry relative="1" as="geometry">
                        <mxPoint x="160" y="1780" as="targetPoint"/>
                    </mxGeometry>
                </mxCell>
                <mxCell id="zVb4LhKWTQDya5SxU7NS-53" style="edgeStyle=none;html=1;" parent="1" source="zVb4LhKWTQDya5SxU7NS-46" edge="1">
                    <mxGeometry relative="1" as="geometry">
                        <mxPoint x="400" y="1780" as="targetPoint"/>
                    </mxGeometry>
                </mxCell>
                <mxCell id="zVb4LhKWTQDya5SxU7NS-46" value="帧间空间" style="text;html=1;align=center;verticalAlign=middle;whiteSpace=wrap;rounded=0;" parent="1" vertex="1">
                    <mxGeometry x="255" y="1770" width="50" height="20" as="geometry"/>
                </mxCell>
                <mxCell id="zVb4LhKWTQDya5SxU7NS-47" value="" style="endArrow=none;html=1;exitX=1;exitY=0;exitDx=0;exitDy=0;" parent="1" edge="1">
                    <mxGeometry width="50" height="50" relative="1" as="geometry">
                        <mxPoint x="399.31" y="1800" as="sourcePoint"/>
                        <mxPoint x="399.31" y="1760" as="targetPoint"/>
                    </mxGeometry>
                </mxCell>
                <mxCell id="zVb4LhKWTQDya5SxU7NS-48" value="间歇场" style="rounded=0;whiteSpace=wrap;html=1;" parent="1" vertex="1">
                    <mxGeometry x="160" y="1800" width="80" height="40" as="geometry"/>
                </mxCell>
                <mxCell id="zVb4LhKWTQDya5SxU7NS-49" value="总线空闲" style="rounded=0;whiteSpace=wrap;html=1;" parent="1" vertex="1">
                    <mxGeometry x="320" y="1800" width="80" height="40" as="geometry"/>
                </mxCell>
                <mxCell id="zVb4LhKWTQDya5SxU7NS-50" value="帧" style="text;html=1;align=center;verticalAlign=middle;whiteSpace=wrap;rounded=0;" parent="1" vertex="1">
                    <mxGeometry x="415" y="1770" width="20" height="20" as="geometry"/>
                </mxCell>
                <mxCell id="zVb4LhKWTQDya5SxU7NS-51" value="" style="endArrow=none;html=1;" parent="1" edge="1">
                    <mxGeometry width="50" height="50" relative="1" as="geometry">
                        <mxPoint x="120" y="1840" as="sourcePoint"/>
                        <mxPoint x="440" y="1840" as="targetPoint"/>
                    </mxGeometry>
                </mxCell>
                <mxCell id="zVb4LhKWTQDya5SxU7NS-52" value="暂停发送场" style="rounded=0;whiteSpace=wrap;html=1;" parent="1" vertex="1">
                    <mxGeometry x="240" y="1800" width="80" height="40" as="geometry"/>
                </mxCell>
                <mxCell id="oH4N1brzfLpQa9B1ezql-2" value="普通帧间隔" style="text;html=1;align=center;verticalAlign=middle;whiteSpace=wrap;rounded=0;" vertex="1" parent="1">
                    <mxGeometry x="110" y="1610" width="90" height="30" as="geometry"/>
                </mxCell>
                <mxCell id="oH4N1brzfLpQa9B1ezql-3" value="前一帧”错误认可“间隔" style="text;html=1;align=center;verticalAlign=middle;whiteSpace=wrap;rounded=0;" vertex="1" parent="1">
                    <mxGeometry x="110" y="1730" width="130" height="30" as="geometry"/>
                </mxCell>
            </root>
        </mxGraphModel>
    </diagram>
</mxfile>